<svg width="1200" height="400" viewBox="0 0 1200 400" fill="none" xmlns="http://www.w3.org/2000/svg">
<rect width="1200" height="400" fill="#00749D"/>
<path d="M173.53 250.56C167.203 250.56 161.7 249.13 157.02 246.27C152.427 243.323 148.83 239.207 146.23 233.92C143.717 228.633 142.46 222.393 142.46 215.2C142.46 208.007 143.717 201.767 146.23 196.48C148.83 191.193 152.427 187.12 157.02 184.26C161.7 181.313 167.203 179.84 173.53 179.84C179.77 179.84 185.187 181.313 189.78 184.26C194.46 187.12 198.057 191.193 200.57 196.48C203.17 201.767 204.47 208.007 204.47 215.2C204.47 222.393 203.17 228.633 200.57 233.92C198.057 239.207 194.46 243.323 189.78 246.27C185.187 249.13 179.77 250.56 173.53 250.56ZM173.53 238.73C178.383 238.73 182.24 237.257 185.1 234.31C188.047 231.277 189.52 226.813 189.52 220.92V209.48C189.52 203.587 188.047 199.167 185.1 196.22C182.24 193.187 178.383 191.67 173.53 191.67C168.763 191.67 164.863 193.187 161.83 196.22C158.883 199.167 157.41 203.587 157.41 209.48V220.92C157.41 226.813 158.883 231.277 161.83 234.31C164.863 237.257 168.763 238.73 173.53 238.73ZM218.838 275V181.4H233.008V192.58H233.658C235.045 188.507 237.428 185.387 240.808 183.22C244.188 180.967 248.131 179.84 252.638 179.84C258.358 179.84 263.211 181.27 267.198 184.13C271.185 186.903 274.218 190.933 276.298 196.22C278.465 201.42 279.548 207.747 279.548 215.2C279.548 222.567 278.465 228.893 276.298 234.18C274.218 239.467 271.185 243.54 267.198 246.4C263.211 249.173 258.358 250.56 252.638 250.56C248.131 250.56 244.231 249.433 240.938 247.18C237.645 244.927 235.218 241.807 233.658 237.82H233.008V275H218.838ZM248.348 238.6C253.288 238.6 257.231 236.997 260.178 233.79C263.125 230.497 264.598 226.25 264.598 221.05V209.35C264.598 204.15 263.125 199.947 260.178 196.74C257.231 193.533 253.288 191.93 248.348 191.93C245.488 191.93 242.888 192.407 240.548 193.36C238.295 194.313 236.475 195.657 235.088 197.39C233.701 199.123 233.008 201.16 233.008 203.5V226.38C233.008 228.98 233.701 231.19 235.088 233.01C236.475 234.743 238.295 236.13 240.548 237.17C242.888 238.123 245.488 238.6 248.348 238.6ZM321.122 250.56C314.708 250.56 309.162 249.13 304.482 246.27C299.802 243.323 296.162 239.207 293.562 233.92C291.048 228.633 289.792 222.393 289.792 215.2C289.792 208.007 291.048 201.81 293.562 196.61C296.075 191.323 299.628 187.207 304.222 184.26C308.815 181.313 314.318 179.84 320.732 179.84C327.405 179.84 332.952 181.357 337.372 184.39C341.878 187.337 345.258 191.367 347.512 196.48C349.765 201.593 350.892 207.27 350.892 213.51V218.84H304.612V221.05C304.612 226.25 306.128 230.54 309.162 233.92C312.282 237.213 316.702 238.86 322.422 238.86C326.582 238.86 330.092 237.95 332.952 236.13C335.812 234.31 338.195 231.84 340.102 228.72L348.552 236.91C345.952 240.983 342.268 244.277 337.502 246.79C332.822 249.303 327.362 250.56 321.122 250.56ZM320.992 190.89C317.698 190.89 314.795 191.67 312.282 193.23C309.855 194.703 307.948 196.783 306.562 199.47C305.262 202.07 304.612 205.103 304.612 208.57V209.48H336.072V208.18C336.072 204.713 335.465 201.68 334.252 199.08C333.038 196.48 331.305 194.487 329.052 193.1C326.798 191.627 324.112 190.89 320.992 190.89ZM379.451 249H365.281V181.4H379.451V192.58H380.101C381.574 188.94 383.784 185.907 386.731 183.48C389.764 181.053 393.881 179.84 399.081 179.84C406.014 179.84 411.388 182.137 415.201 186.73C419.101 191.323 421.051 197.78 421.051 206.1V249H406.881V207.79C406.881 202.503 405.841 198.56 403.761 195.96C401.768 193.273 398.561 191.93 394.141 191.93C391.628 191.93 389.244 192.363 386.991 193.23C384.824 194.01 383.004 195.267 381.531 197C380.144 198.733 379.451 200.9 379.451 203.5V249ZM465.521 250.56C455.728 250.56 448.144 247.397 442.771 241.07C437.398 234.657 434.711 226.033 434.711 215.2C434.711 204.367 437.398 195.787 442.771 189.46C448.144 183.047 455.728 179.84 465.521 179.84C472.281 179.84 477.828 181.357 482.161 184.39C486.494 187.423 489.614 191.453 491.521 196.48L479.821 201.94C478.868 198.82 477.178 196.35 474.751 194.53C472.324 192.623 469.248 191.67 465.521 191.67C460.321 191.67 456.378 193.317 453.691 196.61C451.004 199.817 449.661 204.02 449.661 209.22V221.18C449.661 226.38 451.004 230.627 453.691 233.92C456.378 237.213 460.321 238.86 465.521 238.86C469.594 238.86 472.888 237.863 475.401 235.87C477.914 233.79 479.908 231.06 481.381 227.68L492.041 233.4C489.874 238.947 486.538 243.193 482.031 246.14C477.524 249.087 472.021 250.56 465.521 250.56ZM529.862 250.56C523.535 250.56 518.032 249.13 513.352 246.27C508.759 243.323 505.162 239.207 502.562 233.92C500.049 228.633 498.792 222.393 498.792 215.2C498.792 208.007 500.049 201.767 502.562 196.48C505.162 191.193 508.759 187.12 513.352 184.26C518.032 181.313 523.535 179.84 529.862 179.84C536.102 179.84 541.519 181.313 546.112 184.26C550.792 187.12 554.389 191.193 556.902 196.48C559.502 201.767 560.802 208.007 560.802 215.2C560.802 222.393 559.502 228.633 556.902 233.92C554.389 239.207 550.792 243.323 546.112 246.27C541.519 249.13 536.102 250.56 529.862 250.56ZM529.862 238.73C534.715 238.73 538.572 237.257 541.432 234.31C544.379 231.277 545.852 226.813 545.852 220.92V209.48C545.852 203.587 544.379 199.167 541.432 196.22C538.572 193.187 534.715 191.67 529.862 191.67C525.095 191.67 521.195 193.187 518.162 196.22C515.215 199.167 513.742 203.587 513.742 209.48V220.92C513.742 226.813 515.215 231.277 518.162 234.31C521.195 237.257 525.095 238.73 529.862 238.73ZM589.34 249H575.17V181.4H589.34V192.58H589.99C591.463 188.94 593.673 185.907 596.62 183.48C599.653 181.053 603.77 179.84 608.97 179.84C615.903 179.84 621.277 182.137 625.09 186.73C628.99 191.323 630.94 197.78 630.94 206.1V249H616.77V207.79C616.77 202.503 615.73 198.56 613.65 195.96C611.657 193.273 608.45 191.93 604.03 191.93C601.517 191.93 599.133 192.363 596.88 193.23C594.713 194.01 592.893 195.267 591.42 197C590.033 198.733 589.34 200.9 589.34 203.5V249ZM652.79 249V192.97H642.52V181.4H652.79V170.22C652.79 164.76 654.22 160.513 657.08 157.48C660.027 154.36 664.317 152.8 669.95 152.8H681.13V164.37H666.96V181.4H681.13V192.97H666.96V249H652.79ZM718.042 250.56C711.715 250.56 706.212 249.13 701.532 246.27C696.939 243.323 693.342 239.207 690.742 233.92C688.229 228.633 686.972 222.393 686.972 215.2C686.972 208.007 688.229 201.767 690.742 196.48C693.342 191.193 696.939 187.12 701.532 184.26C706.212 181.313 711.715 179.84 718.042 179.84C724.282 179.84 729.699 181.313 734.292 184.26C738.972 187.12 742.569 191.193 745.082 196.48C747.682 201.767 748.982 208.007 748.982 215.2C748.982 222.393 747.682 228.633 745.082 233.92C742.569 239.207 738.972 243.323 734.292 246.27C729.699 249.13 724.282 250.56 718.042 250.56ZM718.042 238.73C722.895 238.73 726.752 237.257 729.612 234.31C732.559 231.277 734.032 226.813 734.032 220.92V209.48C734.032 203.587 732.559 199.167 729.612 196.22C726.752 193.187 722.895 191.67 718.042 191.67C713.275 191.67 709.375 193.187 706.342 196.22C703.395 199.167 701.922 203.587 701.922 209.48V220.92C701.922 226.813 703.395 231.277 706.342 234.31C709.375 237.257 713.275 238.73 718.042 238.73ZM777.52 249H763.35V181.4H777.52V194.79H778.17C778.863 192.537 779.947 190.413 781.42 188.42C782.98 186.34 785.017 184.65 787.53 183.35C790.043 182.05 793.12 181.4 796.76 181.4H800.53V195.05H794.94C791.213 195.05 788.05 195.483 785.45 196.35C782.85 197.217 780.857 198.43 779.47 199.99C778.17 201.55 777.52 203.5 777.52 205.84V249ZM825.986 249H811.816V181.4H825.986V192.58H826.636C828.022 189.027 830.102 186.037 832.876 183.61C835.736 181.097 839.722 179.84 844.836 179.84C849.342 179.84 853.372 180.967 856.926 183.22C860.479 185.387 863.079 188.853 864.726 193.62H865.116C866.329 189.893 868.669 186.687 872.136 184C875.602 181.227 880.109 179.84 885.656 179.84C892.416 179.84 897.616 182.137 901.256 186.73C904.982 191.323 906.846 197.78 906.846 206.1V249H892.676V207.79C892.676 202.503 891.679 198.56 889.686 195.96C887.692 193.273 884.572 191.93 880.326 191.93C877.986 191.93 875.732 192.363 873.566 193.23C871.399 194.01 869.666 195.267 868.366 197C867.066 198.733 866.416 200.9 866.416 203.5V249H852.246V207.79C852.246 202.503 851.249 198.56 849.256 195.96C847.262 193.273 844.186 191.93 840.026 191.93C837.686 191.93 835.432 192.363 833.266 193.23C831.099 194.01 829.322 195.267 827.936 197C826.636 198.733 825.986 200.9 825.986 203.5V249ZM932.304 169.31C929.358 169.31 927.191 168.617 925.804 167.23C924.504 165.843 923.854 164.067 923.854 161.9V159.69C923.854 157.523 924.504 155.747 925.804 154.36C927.191 152.973 929.358 152.28 932.304 152.28C935.251 152.28 937.374 152.973 938.674 154.36C939.974 155.747 940.624 157.523 940.624 159.69V161.9C940.624 164.067 939.974 165.843 938.674 167.23C937.374 168.617 935.251 169.31 932.304 169.31ZM925.154 249V181.4H939.324V249H925.154ZM989.329 249H976.979C972.125 249 968.399 247.7 965.799 245.1C963.285 242.413 962.029 238.773 962.029 234.18V192.97H951.499V181.4H957.219C959.559 181.4 961.162 180.88 962.029 179.84C962.982 178.8 963.459 177.11 963.459 174.77V162.94H976.199V181.4H990.369V192.97H976.199V237.43H989.329V249ZM1032.39 221.18L1045.91 181.4H1059.56L1031.09 262.39C1030.05 265.423 1028.79 267.85 1027.32 269.67C1025.93 271.577 1024.11 272.92 1021.86 273.7C1019.69 274.567 1016.83 275 1013.28 275H1005.09V263.43H1016.53L1020.43 251.99L995.859 181.4H1010.03L1023.55 221.18L1027.45 235.87H1028.1L1032.39 221.18Z" fill="white"/>
</svg>
