<svg width="32" height="32" viewBox="0 0 32 32" fill="none" xmlns="http://www.w3.org/2000/svg">
<g clip-path="url(#clip0_1_12)">
<rect width="32" height="32" rx="2" fill="#00749D"/>
<path d="M10.4086 22.264C9.3379 22.264 8.40656 22.022 7.61456 21.538C6.83723 21.0393 6.22856 20.3427 5.78856 19.448C5.36323 18.5533 5.15056 17.4973 5.15056 16.28C5.15056 15.0627 5.36323 14.0067 5.78856 13.112C6.22856 12.2173 6.83723 11.528 7.61456 11.044C8.40656 10.5453 9.3379 10.296 10.4086 10.296C11.4646 10.296 12.3812 10.5453 13.1586 11.044C13.9506 11.528 14.5592 12.2173 14.9846 13.112C15.4246 14.0067 15.6446 15.0627 15.6446 16.28C15.6446 17.4973 15.4246 18.5533 14.9846 19.448C14.5592 20.3427 13.9506 21.0393 13.1586 21.538C12.3812 22.022 11.4646 22.264 10.4086 22.264ZM10.4086 20.262C11.2299 20.262 11.8826 20.0127 12.3666 19.514C12.8652 19.0007 13.1146 18.2453 13.1146 17.248V15.312C13.1146 14.3147 12.8652 13.5667 12.3666 13.068C11.8826 12.5547 11.2299 12.298 10.4086 12.298C9.6019 12.298 8.9419 12.5547 8.42856 13.068C7.9299 13.5667 7.68056 14.3147 7.68056 15.312V17.248C7.68056 18.2453 7.9299 19.0007 8.42856 19.514C8.9419 20.0127 9.6019 20.262 10.4086 20.262ZM22.7181 22.264C21.0607 22.264 19.7774 21.7287 18.8681 20.658C17.9587 19.5727 17.5041 18.1133 17.5041 16.28C17.5041 14.4467 17.9587 12.9947 18.8681 11.924C19.7774 10.8387 21.0607 10.296 22.7181 10.296C23.8621 10.296 24.8007 10.5527 25.5341 11.066C26.2674 11.5793 26.7954 12.2613 27.1181 13.112L25.1381 14.036C24.9767 13.508 24.6907 13.09 24.2801 12.782C23.8694 12.4593 23.3487 12.298 22.7181 12.298C21.8381 12.298 21.1707 12.5767 20.7161 13.134C20.2614 13.6767 20.0341 14.388 20.0341 15.268V17.292C20.0341 18.172 20.2614 18.8907 20.7161 19.448C21.1707 20.0053 21.8381 20.284 22.7181 20.284C23.4074 20.284 23.9647 20.1153 24.3901 19.778C24.8154 19.426 25.1527 18.964 25.4021 18.392L27.2061 19.36C26.8394 20.2987 26.2747 21.0173 25.5121 21.516C24.7494 22.0147 23.8181 22.264 22.7181 22.264Z" fill="white"/>
</g>
<defs>
<clipPath id="clip0_1_12">
<rect width="32" height="32" rx="2" fill="white"/>
</clipPath>
</defs>
</svg>
