<svg width="300" height="300" viewBox="0 0 300 300" fill="none" xmlns="http://www.w3.org/2000/svg">
<rect width="300" height="300" fill="#00749D"/>
<path d="M38.554 163.408C36.8993 163.408 35.46 163.034 34.236 162.286C33.0347 161.515 32.094 160.439 31.414 159.056C30.7567 157.673 30.428 156.041 30.428 154.16C30.428 152.279 30.7567 150.647 31.414 149.264C32.094 147.881 33.0347 146.816 34.236 146.068C35.46 145.297 36.8993 144.912 38.554 144.912C40.186 144.912 41.6027 145.297 42.804 146.068C44.028 146.816 44.9687 147.881 45.626 149.264C46.306 150.647 46.646 152.279 46.646 154.16C46.646 156.041 46.306 157.673 45.626 159.056C44.9687 160.439 44.028 161.515 42.804 162.286C41.6027 163.034 40.186 163.408 38.554 163.408ZM38.554 160.314C39.8233 160.314 40.832 159.929 41.58 159.158C42.3507 158.365 42.736 157.197 42.736 155.656V152.664C42.736 151.123 42.3507 149.967 41.58 149.196C40.832 148.403 39.8233 148.006 38.554 148.006C37.3073 148.006 36.2873 148.403 35.494 149.196C34.7233 149.967 34.338 151.123 34.338 152.664V155.656C34.338 157.197 34.7233 158.365 35.494 159.158C36.2873 159.929 37.3073 160.314 38.554 160.314ZM50.4038 169.8V145.32H54.1098V148.244H54.2798C54.6425 147.179 55.2658 146.363 56.1498 145.796C57.0338 145.207 58.0651 144.912 59.2438 144.912C60.7398 144.912 62.0091 145.286 63.0518 146.034C64.0945 146.759 64.8878 147.813 65.4318 149.196C65.9985 150.556 66.2818 152.211 66.2818 154.16C66.2818 156.087 65.9985 157.741 65.4318 159.124C64.8878 160.507 64.0945 161.572 63.0518 162.32C62.0091 163.045 60.7398 163.408 59.2438 163.408C58.0651 163.408 57.0451 163.113 56.1838 162.524C55.3225 161.935 54.6878 161.119 54.2798 160.076H54.1098V169.8H50.4038ZM58.1218 160.28C59.4138 160.28 60.4451 159.861 61.2158 159.022C61.9865 158.161 62.3718 157.05 62.3718 155.69V152.63C62.3718 151.27 61.9865 150.171 61.2158 149.332C60.4451 148.493 59.4138 148.074 58.1218 148.074C57.3738 148.074 56.6938 148.199 56.0818 148.448C55.4925 148.697 55.0165 149.049 54.6538 149.502C54.2911 149.955 54.1098 150.488 54.1098 151.1V157.084C54.1098 157.764 54.2911 158.342 54.6538 158.818C55.0165 159.271 55.4925 159.634 56.0818 159.906C56.6938 160.155 57.3738 160.28 58.1218 160.28ZM77.1549 163.408C75.4776 163.408 74.0269 163.034 72.8029 162.286C71.5789 161.515 70.6269 160.439 69.9469 159.056C69.2896 157.673 68.9609 156.041 68.9609 154.16C68.9609 152.279 69.2896 150.658 69.9469 149.298C70.6042 147.915 71.5336 146.839 72.7349 146.068C73.9362 145.297 75.3756 144.912 77.0529 144.912C78.7982 144.912 80.2489 145.309 81.4049 146.102C82.5836 146.873 83.4676 147.927 84.0569 149.264C84.6462 150.601 84.9409 152.086 84.9409 153.718V155.112H72.8369V155.69C72.8369 157.05 73.2336 158.172 74.0269 159.056C74.8429 159.917 75.9989 160.348 77.4949 160.348C78.5829 160.348 79.5009 160.11 80.2489 159.634C80.9969 159.158 81.6202 158.512 82.1189 157.696L84.3289 159.838C83.6489 160.903 82.6856 161.765 81.4389 162.422C80.2149 163.079 78.7869 163.408 77.1549 163.408ZM77.1209 147.802C76.2596 147.802 75.5002 148.006 74.8429 148.414C74.2082 148.799 73.7096 149.343 73.3469 150.046C73.0069 150.726 72.8369 151.519 72.8369 152.426V152.664H81.0649V152.324C81.0649 151.417 80.9062 150.624 80.5889 149.944C80.2716 149.264 79.8182 148.743 79.2289 148.38C78.6396 147.995 77.9369 147.802 77.1209 147.802ZM92.4103 163H88.7043V145.32H92.4103V148.244H92.5803C92.9656 147.292 93.5436 146.499 94.3143 145.864C95.1076 145.229 96.1843 144.912 97.5443 144.912C99.3576 144.912 100.763 145.513 101.76 146.714C102.78 147.915 103.29 149.604 103.29 151.78V163H99.5843V152.222C99.5843 150.839 99.3123 149.808 98.7683 149.128C98.2469 148.425 97.4083 148.074 96.2523 148.074C95.5949 148.074 94.9716 148.187 94.3823 148.414C93.8156 148.618 93.3396 148.947 92.9543 149.4C92.5916 149.853 92.4103 150.42 92.4103 151.1V163ZM114.921 163.408C112.36 163.408 110.376 162.581 108.971 160.926C107.566 159.249 106.863 156.993 106.863 154.16C106.863 151.327 107.566 149.083 108.971 147.428C110.376 145.751 112.36 144.912 114.921 144.912C116.689 144.912 118.14 145.309 119.273 146.102C120.406 146.895 121.222 147.949 121.721 149.264L118.661 150.692C118.412 149.876 117.97 149.23 117.335 148.754C116.7 148.255 115.896 148.006 114.921 148.006C113.561 148.006 112.53 148.437 111.827 149.298C111.124 150.137 110.773 151.236 110.773 152.596V155.724C110.773 157.084 111.124 158.195 111.827 159.056C112.53 159.917 113.561 160.348 114.921 160.348C115.986 160.348 116.848 160.087 117.505 159.566C118.162 159.022 118.684 158.308 119.069 157.424L121.857 158.92C121.29 160.371 120.418 161.481 119.239 162.252C118.06 163.023 116.621 163.408 114.921 163.408ZM131.749 163.408C130.094 163.408 128.655 163.034 127.431 162.286C126.229 161.515 125.289 160.439 124.609 159.056C123.951 157.673 123.623 156.041 123.623 154.16C123.623 152.279 123.951 150.647 124.609 149.264C125.289 147.881 126.229 146.816 127.431 146.068C128.655 145.297 130.094 144.912 131.749 144.912C133.381 144.912 134.797 145.297 135.999 146.068C137.223 146.816 138.163 147.881 138.821 149.264C139.501 150.647 139.841 152.279 139.841 154.16C139.841 156.041 139.501 157.673 138.821 159.056C138.163 160.439 137.223 161.515 135.999 162.286C134.797 163.034 133.381 163.408 131.749 163.408ZM131.749 160.314C133.018 160.314 134.027 159.929 134.775 159.158C135.545 158.365 135.931 157.197 135.931 155.656V152.664C135.931 151.123 135.545 149.967 134.775 149.196C134.027 148.403 133.018 148.006 131.749 148.006C130.502 148.006 129.482 148.403 128.689 149.196C127.918 149.967 127.533 151.123 127.533 152.664V155.656C127.533 157.197 127.918 158.365 128.689 159.158C129.482 159.929 130.502 160.314 131.749 160.314ZM147.304 163H143.598V145.32H147.304V148.244H147.474C147.86 147.292 148.438 146.499 149.208 145.864C150.002 145.229 151.078 144.912 152.438 144.912C154.252 144.912 155.657 145.513 156.654 146.714C157.674 147.915 158.184 149.604 158.184 151.78V163H154.478V152.222C154.478 150.839 154.206 149.808 153.662 149.128C153.141 148.425 152.302 148.074 151.146 148.074C150.489 148.074 149.866 148.187 149.276 148.414C148.71 148.618 148.234 148.947 147.848 149.4C147.486 149.853 147.304 150.42 147.304 151.1V163ZM163.899 163V148.346H161.213V145.32H163.899V142.396C163.899 140.968 164.273 139.857 165.021 139.064C165.792 138.248 166.914 137.84 168.387 137.84H171.311V140.866H167.605V145.32H171.311V148.346H167.605V163H163.899ZM180.965 163.408C179.31 163.408 177.871 163.034 176.647 162.286C175.446 161.515 174.505 160.439 173.825 159.056C173.168 157.673 172.839 156.041 172.839 154.16C172.839 152.279 173.168 150.647 173.825 149.264C174.505 147.881 175.446 146.816 176.647 146.068C177.871 145.297 179.31 144.912 180.965 144.912C182.597 144.912 184.014 145.297 185.215 146.068C186.439 146.816 187.38 147.881 188.037 149.264C188.717 150.647 189.057 152.279 189.057 154.16C189.057 156.041 188.717 157.673 188.037 159.056C187.38 160.439 186.439 161.515 185.215 162.286C184.014 163.034 182.597 163.408 180.965 163.408ZM180.965 160.314C182.234 160.314 183.243 159.929 183.991 159.158C184.762 158.365 185.147 157.197 185.147 155.656V152.664C185.147 151.123 184.762 149.967 183.991 149.196C183.243 148.403 182.234 148.006 180.965 148.006C179.718 148.006 178.698 148.403 177.905 149.196C177.134 149.967 176.749 151.123 176.749 152.664V155.656C176.749 157.197 177.134 158.365 177.905 159.158C178.698 159.929 179.718 160.314 180.965 160.314ZM196.521 163H192.815V145.32H196.521V148.822H196.691C196.872 148.233 197.155 147.677 197.541 147.156C197.949 146.612 198.481 146.17 199.139 145.83C199.796 145.49 200.601 145.32 201.553 145.32H202.539V148.89H201.077C200.102 148.89 199.275 149.003 198.595 149.23C197.915 149.457 197.393 149.774 197.031 150.182C196.691 150.59 196.521 151.1 196.521 151.712V163ZM209.196 163H205.49V145.32H209.196V148.244H209.366C209.729 147.315 210.273 146.533 210.998 145.898C211.746 145.241 212.789 144.912 214.126 144.912C215.305 144.912 216.359 145.207 217.288 145.796C218.218 146.363 218.898 147.269 219.328 148.516H219.43C219.748 147.541 220.36 146.703 221.266 146C222.173 145.275 223.352 144.912 224.802 144.912C226.57 144.912 227.93 145.513 228.882 146.714C229.857 147.915 230.344 149.604 230.344 151.78V163H226.638V152.222C226.638 150.839 226.378 149.808 225.856 149.128C225.335 148.425 224.519 148.074 223.408 148.074C222.796 148.074 222.207 148.187 221.64 148.414C221.074 148.618 220.62 148.947 220.28 149.4C219.94 149.853 219.77 150.42 219.77 151.1V163H216.064V152.222C216.064 150.839 215.804 149.808 215.282 149.128C214.761 148.425 213.956 148.074 212.868 148.074C212.256 148.074 211.667 148.187 211.1 148.414C210.534 148.618 210.069 148.947 209.706 149.4C209.366 149.853 209.196 150.42 209.196 151.1V163ZM237.003 142.158C236.232 142.158 235.665 141.977 235.303 141.614C234.963 141.251 234.793 140.787 234.793 140.22V139.642C234.793 139.075 234.963 138.611 235.303 138.248C235.665 137.885 236.232 137.704 237.003 137.704C237.773 137.704 238.329 137.885 238.669 138.248C239.009 138.611 239.179 139.075 239.179 139.642V140.22C239.179 140.787 239.009 141.251 238.669 141.614C238.329 141.977 237.773 142.158 237.003 142.158ZM235.133 163V145.32H238.839V163H235.133ZM251.917 163H248.687C247.417 163 246.443 162.66 245.763 161.98C245.105 161.277 244.777 160.325 244.777 159.124V148.346H242.023V145.32H243.519C244.131 145.32 244.55 145.184 244.777 144.912C245.026 144.64 245.151 144.198 245.151 143.586V140.492H248.483V145.32H252.189V148.346H248.483V159.974H251.917V163ZM263.179 155.724L266.715 145.32H270.285L262.839 166.502C262.567 167.295 262.238 167.93 261.853 168.406C261.49 168.905 261.014 169.256 260.425 169.46C259.858 169.687 259.11 169.8 258.181 169.8H256.039V166.774H259.031L260.051 163.782L253.625 145.32H257.331L260.867 155.724L261.887 159.566H262.057L263.179 155.724Z" fill="white"/>
</svg>
