<svg width="1642" height="409" viewBox="0 0 1642 409" fill="none" xmlns="http://www.w3.org/2000/svg">
<path d="M166.2 282.4C156.467 282.4 148 280.2 140.8 275.8C133.733 271.267 128.2 264.933 124.2 256.8C120.333 248.667 118.4 239.067 118.4 228C118.4 216.933 120.333 207.333 124.2 199.2C128.2 191.067 133.733 184.8 140.8 180.4C148 175.867 156.467 173.6 166.2 173.6C175.8 173.6 184.133 175.867 191.2 180.4C198.4 184.8 203.933 191.067 207.8 199.2C211.8 207.333 213.8 216.933 213.8 228C213.8 239.067 211.8 248.667 207.8 256.8C203.933 264.933 198.4 271.267 191.2 275.8C184.133 280.2 175.8 282.4 166.2 282.4ZM166.2 264.2C173.667 264.2 179.6 261.933 184 257.4C188.533 252.733 190.8 245.867 190.8 236.8V219.2C190.8 210.133 188.533 203.333 184 198.8C179.6 194.133 173.667 191.8 166.2 191.8C158.867 191.8 152.867 194.133 148.2 198.8C143.667 203.333 141.4 210.133 141.4 219.2V236.8C141.4 245.867 143.667 252.733 148.2 257.4C152.867 261.933 158.867 264.2 166.2 264.2ZM235.905 320V176H257.705V193.2H258.705C260.838 186.933 264.505 182.133 269.705 178.8C274.905 175.333 280.971 173.6 287.905 173.6C296.705 173.6 304.171 175.8 310.305 180.2C316.438 184.467 321.105 190.667 324.305 198.8C327.638 206.8 329.305 216.533 329.305 228C329.305 239.333 327.638 249.067 324.305 257.2C321.105 265.333 316.438 271.6 310.305 276C304.171 280.267 296.705 282.4 287.905 282.4C280.971 282.4 274.971 280.667 269.905 277.2C264.838 273.733 261.105 268.933 258.705 262.8H257.705V320H235.905ZM281.305 264C288.905 264 294.971 261.533 299.505 256.6C304.038 251.533 306.305 245 306.305 237V219C306.305 211 304.038 204.533 299.505 199.6C294.971 194.667 288.905 192.2 281.305 192.2C276.905 192.2 272.905 192.933 269.305 194.4C265.838 195.867 263.038 197.933 260.905 200.6C258.771 203.267 257.705 206.4 257.705 210V245.2C257.705 249.2 258.771 252.6 260.905 255.4C263.038 258.067 265.838 260.2 269.305 261.8C272.905 263.267 276.905 264 281.305 264ZM393.264 282.4C383.397 282.4 374.864 280.2 367.664 275.8C360.464 271.267 354.864 264.933 350.864 256.8C346.997 248.667 345.064 239.067 345.064 228C345.064 216.933 346.997 207.4 350.864 199.4C354.731 191.267 360.197 184.933 367.264 180.4C374.331 175.867 382.797 173.6 392.664 173.6C402.931 173.6 411.464 175.933 418.264 180.6C425.197 185.133 430.397 191.333 433.864 199.2C437.331 207.067 439.064 215.8 439.064 225.4V233.6H367.864V237C367.864 245 370.197 251.6 374.864 256.8C379.664 261.867 386.464 264.4 395.264 264.4C401.664 264.4 407.064 263 411.464 260.2C415.864 257.4 419.531 253.6 422.464 248.8L435.464 261.4C431.464 267.667 425.797 272.733 418.464 276.6C411.264 280.467 402.864 282.4 393.264 282.4ZM393.064 190.6C387.997 190.6 383.531 191.8 379.664 194.2C375.931 196.467 372.997 199.667 370.864 203.8C368.864 207.8 367.864 212.467 367.864 217.8V219.2H416.264V217.2C416.264 211.867 415.331 207.2 413.464 203.2C411.597 199.2 408.931 196.133 405.464 194C401.997 191.733 397.864 190.6 393.064 190.6ZM483.002 280H461.202V176H483.002V193.2H484.002C486.268 187.6 489.668 182.933 494.202 179.2C498.868 175.467 505.202 173.6 513.202 173.6C523.868 173.6 532.135 177.133 538.002 184.2C544.002 191.267 547.002 201.2 547.002 214V280H525.202V216.6C525.202 208.467 523.602 202.4 520.402 198.4C517.335 194.267 512.402 192.2 505.602 192.2C501.735 192.2 498.068 192.867 494.602 194.2C491.268 195.4 488.468 197.333 486.202 200C484.068 202.667 483.002 206 483.002 210V280ZM615.417 282.4C600.351 282.4 588.684 277.533 580.417 267.8C572.151 257.933 568.017 244.667 568.017 228C568.017 211.333 572.151 198.133 580.417 188.4C588.684 178.533 600.351 173.6 615.417 173.6C625.817 173.6 634.351 175.933 641.017 180.6C647.684 185.267 652.484 191.467 655.417 199.2L637.417 207.6C635.951 202.8 633.351 199 629.617 196.2C625.884 193.267 621.151 191.8 615.417 191.8C607.417 191.8 601.351 194.333 597.217 199.4C593.084 204.333 591.017 210.8 591.017 218.8V237.2C591.017 245.2 593.084 251.733 597.217 256.8C601.351 261.867 607.417 264.4 615.417 264.4C621.684 264.4 626.751 262.867 630.617 259.8C634.484 256.6 637.551 252.4 639.817 247.2L656.217 256C652.884 264.533 647.751 271.067 640.817 275.6C633.884 280.133 625.417 282.4 615.417 282.4ZM714.403 282.4C704.67 282.4 696.203 280.2 689.003 275.8C681.936 271.267 676.403 264.933 672.403 256.8C668.536 248.667 666.603 239.067 666.603 228C666.603 216.933 668.536 207.333 672.403 199.2C676.403 191.067 681.936 184.8 689.003 180.4C696.203 175.867 704.67 173.6 714.403 173.6C724.003 173.6 732.336 175.867 739.403 180.4C746.603 184.8 752.136 191.067 756.003 199.2C760.003 207.333 762.003 216.933 762.003 228C762.003 239.067 760.003 248.667 756.003 256.8C752.136 264.933 746.603 271.267 739.403 275.8C732.336 280.2 724.003 282.4 714.403 282.4ZM714.403 264.2C721.87 264.2 727.803 261.933 732.203 257.4C736.736 252.733 739.003 245.867 739.003 236.8V219.2C739.003 210.133 736.736 203.333 732.203 198.8C727.803 194.133 721.87 191.8 714.403 191.8C707.07 191.8 701.07 194.133 696.403 198.8C691.87 203.333 689.603 210.133 689.603 219.2V236.8C689.603 245.867 691.87 252.733 696.403 257.4C701.07 261.933 707.07 264.2 714.403 264.2ZM805.908 280H784.108V176H805.908V193.2H806.908C809.174 187.6 812.574 182.933 817.108 179.2C821.774 175.467 828.108 173.6 836.108 173.6C846.774 173.6 855.041 177.133 860.908 184.2C866.908 191.267 869.908 201.2 869.908 214V280H848.108V216.6C848.108 208.467 846.508 202.4 843.308 198.4C840.241 194.267 835.308 192.2 828.508 192.2C824.641 192.2 820.974 192.867 817.508 194.2C814.174 195.4 811.374 197.333 809.108 200C806.974 202.667 805.908 206 805.908 210V280ZM903.523 280V193.8H887.723V176H903.523V158.8C903.523 150.4 905.723 143.867 910.123 139.2C914.657 134.4 921.257 132 929.923 132H947.123V149.8H925.323V176H947.123V193.8H925.323V280H903.523ZM1003.91 282.4C994.178 282.4 985.711 280.2 978.511 275.8C971.444 271.267 965.911 264.933 961.911 256.8C958.044 248.667 956.111 239.067 956.111 228C956.111 216.933 958.044 207.333 961.911 199.2C965.911 191.067 971.444 184.8 978.511 180.4C985.711 175.867 994.178 173.6 1003.91 173.6C1013.51 173.6 1021.84 175.867 1028.91 180.4C1036.11 184.8 1041.64 191.067 1045.51 199.2C1049.51 207.333 1051.51 216.933 1051.51 228C1051.51 239.067 1049.51 248.667 1045.51 256.8C1041.64 264.933 1036.11 271.267 1028.91 275.8C1021.84 280.2 1013.51 282.4 1003.91 282.4ZM1003.91 264.2C1011.38 264.2 1017.31 261.933 1021.71 257.4C1026.24 252.733 1028.51 245.867 1028.51 236.8V219.2C1028.51 210.133 1026.24 203.333 1021.71 198.8C1017.31 194.133 1011.38 191.8 1003.91 191.8C996.578 191.8 990.578 194.133 985.911 198.8C981.378 203.333 979.111 210.133 979.111 219.2V236.8C979.111 245.867 981.378 252.733 985.911 257.4C990.578 261.933 996.578 264.2 1003.91 264.2ZM1095.42 280H1073.62V176H1095.42V196.6H1096.42C1097.48 193.133 1099.15 189.867 1101.42 186.8C1103.82 183.6 1106.95 181 1110.82 179C1114.68 177 1119.42 176 1125.02 176H1130.82V197H1122.22C1116.48 197 1111.62 197.667 1107.62 199C1103.62 200.333 1100.55 202.2 1098.42 204.6C1096.42 207 1095.42 210 1095.42 213.6V280ZM1169.98 280H1148.18V176H1169.98V193.2H1170.98C1173.11 187.733 1176.31 183.133 1180.58 179.4C1184.98 175.533 1191.11 173.6 1198.98 173.6C1205.91 173.6 1212.11 175.333 1217.58 178.8C1223.04 182.133 1227.04 187.467 1229.58 194.8H1230.18C1232.04 189.067 1235.64 184.133 1240.98 180C1246.31 175.733 1253.24 173.6 1261.78 173.6C1272.18 173.6 1280.18 177.133 1285.78 184.2C1291.51 191.267 1294.38 201.2 1294.38 214V280H1272.58V216.6C1272.58 208.467 1271.04 202.4 1267.98 198.4C1264.91 194.267 1260.11 192.2 1253.58 192.2C1249.98 192.2 1246.51 192.867 1243.18 194.2C1239.84 195.4 1237.18 197.333 1235.18 200C1233.18 202.667 1232.18 206 1232.18 210V280H1210.38V216.6C1210.38 208.467 1208.84 202.4 1205.78 198.4C1202.71 194.267 1197.98 192.2 1191.58 192.2C1187.98 192.2 1184.51 192.867 1181.18 194.2C1177.84 195.4 1175.11 197.333 1172.98 200C1170.98 202.667 1169.98 206 1169.98 210V280ZM1333.55 157.4C1329.01 157.4 1325.68 156.333 1323.55 154.2C1321.55 152.067 1320.55 149.333 1320.55 146V142.6C1320.55 139.267 1321.55 136.533 1323.55 134.4C1325.68 132.267 1329.01 131.2 1333.55 131.2C1338.08 131.2 1341.35 132.267 1343.35 134.4C1345.35 136.533 1346.35 139.267 1346.35 142.6V146C1346.35 149.333 1345.35 152.067 1343.35 154.2C1341.35 156.333 1338.08 157.4 1333.55 157.4ZM1322.55 280V176H1344.35V280H1322.55ZM1421.28 280H1402.28C1394.81 280 1389.08 278 1385.08 274C1381.21 269.867 1379.28 264.267 1379.28 257.2V193.8H1363.08V176H1371.88C1375.48 176 1377.94 175.2 1379.28 173.6C1380.74 172 1381.48 169.4 1381.48 165.8V147.6H1401.08V176H1422.88V193.8H1401.08V262.2H1421.28V280ZM1487.52 237.2L1508.32 176H1529.32L1485.52 300.6C1483.92 305.267 1481.99 309 1479.72 311.8C1477.59 314.733 1474.79 316.8 1471.32 318C1467.99 319.333 1463.59 320 1458.12 320H1445.52V302.2H1463.12L1469.12 284.6L1431.32 176H1453.12L1473.92 237.2L1479.92 259.8H1480.92L1487.52 237.2Z" fill="currentColor"/>
</svg>
