<svg width="1411" height="189" viewBox="0 0 1411 189" fill="none" xmlns="http://www.w3.org/2000/svg">
<path d="M169.504 42.3994C178.304 42.3994 185.771 44.6 191.904 49C198.038 53.2666 202.704 59.4664 205.904 67.5996C209.238 75.5996 210.904 85.3331 210.904 96.7998C210.904 108.133 209.238 117.867 205.904 126C202.704 134.133 198.038 140.4 191.904 144.8C185.771 149.066 178.304 151.2 169.504 151.2C162.571 151.2 156.57 149.467 151.504 146C146.437 142.533 142.705 137.733 140.305 131.6H139.305V188.8H117.504V44.7998H139.305V62H140.305C142.438 55.7333 146.105 50.9329 151.305 47.5996C156.505 44.1332 162.571 42.3995 169.504 42.3994ZM1355.52 106L1361.52 128.6H1362.52L1369.12 106L1389.92 44.7998H1410.92L1367.12 169.399C1365.52 174.066 1363.59 177.8 1361.32 180.6C1359.19 183.533 1356.39 185.6 1352.92 186.8C1349.59 188.133 1345.19 188.8 1339.72 188.8H1327.12V171H1344.72L1350.72 153.399L1312.92 44.7998H1334.72L1355.52 106ZM47.7998 42.3994C57.3997 42.3994 65.7332 44.6669 72.7998 49.2002C79.9996 53.6002 85.5328 59.8668 89.3994 68C93.3994 76.1333 95.3994 85.7332 95.3994 96.7998C95.3994 107.866 93.3994 117.466 89.3994 125.6C85.5328 133.733 79.9997 140.066 72.7998 144.6C65.7332 149 57.3997 151.2 47.7998 151.2C38.0665 151.2 29.5994 149 22.3994 144.6C15.3328 140.066 9.79977 133.733 5.7998 125.6C1.93316 117.466 5.33164e-06 107.866 0 96.7998C0 85.7332 1.93318 76.1333 5.7998 68C9.79974 59.8668 15.3329 53.6002 22.3994 49.2002C29.5994 44.6669 38.0665 42.3994 47.7998 42.3994ZM274.264 42.3994C284.53 42.3994 293.063 44.7329 299.863 49.3994C306.797 53.9327 311.997 60.1333 315.464 68C318.93 75.8666 320.664 84.6003 320.664 94.2002V102.399H249.464V105.8C249.464 113.8 251.797 120.4 256.464 125.6C261.264 130.666 268.063 133.2 276.863 133.2C283.263 133.2 288.664 131.8 293.063 129C297.463 126.2 301.13 122.4 304.063 117.6L317.063 130.2C313.063 136.467 307.397 141.533 300.063 145.399C292.863 149.266 284.463 151.2 274.863 151.2C264.997 151.2 256.464 149 249.264 144.6C242.064 140.066 236.464 133.733 232.464 125.6C228.597 117.466 226.664 107.866 226.664 96.7998C226.664 85.7333 228.597 76.2001 232.464 68.2002C236.33 60.067 241.797 53.7335 248.863 49.2002C255.93 44.6669 264.397 42.3994 274.264 42.3994ZM497.017 42.3994C507.417 42.3994 515.951 44.7327 522.617 49.3994C529.284 54.0661 534.083 60.2667 537.017 68L519.017 76.3994C517.55 71.5996 514.95 67.7999 511.217 65C507.483 62.0667 502.75 60.5996 497.017 60.5996C489.017 60.5996 482.95 63.1336 478.816 68.2002C474.683 73.1334 472.617 79.5999 472.617 87.5996V106C472.617 114 474.683 120.533 478.816 125.6C482.95 130.666 489.017 133.2 497.017 133.2C503.283 133.2 508.35 131.666 512.217 128.6C516.083 125.4 519.15 121.2 521.417 116L537.816 124.8C534.483 133.333 529.35 139.866 522.417 144.399C515.484 148.933 507.017 151.2 497.017 151.2C481.95 151.2 470.283 146.333 462.017 136.6C453.75 126.733 449.617 113.466 449.617 96.7998C449.617 80.1333 453.75 66.9335 462.017 57.2002C470.283 47.3336 481.95 42.3995 497.017 42.3994ZM596.003 42.3994C605.603 42.3994 613.936 44.6669 621.003 49.2002C628.203 53.6002 633.736 59.8668 637.603 68C641.603 76.1333 643.603 85.7332 643.603 96.7998C643.603 107.866 641.603 117.466 637.603 125.6C633.736 133.733 628.203 140.066 621.003 144.6C613.936 149 605.603 151.2 596.003 151.2C586.27 151.2 577.803 149 570.603 144.6C563.536 140.066 558.003 133.733 554.003 125.6C550.136 117.466 548.203 107.866 548.203 96.7998C548.203 85.7332 550.136 76.1333 554.003 68C558.003 59.8668 563.536 53.6002 570.603 49.2002C577.803 44.6669 586.27 42.3994 596.003 42.3994ZM885.511 42.3994C895.111 42.3994 903.444 44.6669 910.511 49.2002C917.711 53.6002 923.244 59.8668 927.11 68C931.11 76.1333 933.11 85.7332 933.11 96.7998C933.11 107.866 931.11 117.466 927.11 125.6C923.244 133.733 917.711 140.066 910.511 144.6C903.444 149 895.111 151.2 885.511 151.2C875.777 151.2 867.31 149 860.11 144.6C853.044 140.066 847.511 133.733 843.511 125.6C839.644 117.466 837.711 107.866 837.711 96.7998C837.711 85.7332 839.644 76.1333 843.511 68C847.511 59.8668 853.044 53.6002 860.11 49.2002C867.31 44.6669 875.777 42.3994 885.511 42.3994ZM394.801 42.3994C405.467 42.3994 413.735 45.9333 419.602 53C425.601 60.0666 428.602 70 428.602 82.7998V148.8H406.801V85.3994C406.801 77.2664 405.201 71.2001 402.001 67.2002C398.934 63.0669 394.001 61 387.201 61C383.335 61 379.668 61.6667 376.201 63C372.868 64.2 370.067 66.1332 367.801 68.7998C365.668 71.4664 364.602 74.7999 364.602 78.7998V148.8H342.801V44.7998H364.602V62H365.602C367.868 56.4001 371.268 51.7333 375.801 48C380.467 44.2667 386.801 42.3995 394.801 42.3994ZM717.707 42.3994C728.374 42.3994 736.641 45.9333 742.508 53C748.508 60.0666 751.508 70 751.508 82.7998V148.8H729.707V85.3994C729.707 77.2664 728.107 71.2001 724.907 67.2002C721.841 63.0669 716.907 61 710.107 61C706.241 61 702.574 61.6667 699.107 63C695.774 64.2 692.974 66.1332 690.707 68.7998C688.574 71.4664 687.508 74.7999 687.508 78.7998V148.8H665.707V44.7998H687.508V62H688.508C690.774 56.4001 694.174 51.7333 698.707 48C703.374 44.2667 709.707 42.3995 717.707 42.3994ZM828.723 18.5996H806.923V44.7998H828.723V62.5996H806.923V148.8H785.123V62.5996H769.323V44.7998H785.123V27.5996C785.123 19.1999 787.323 12.6666 791.723 8C796.256 3.20001 802.857 0.799805 811.523 0.799805H828.723V18.5996ZM977.016 65.3994H978.016C979.082 61.9329 980.749 58.6662 983.016 55.5996C985.416 52.3998 988.549 49.7997 992.415 47.7998C996.282 45.7998 1001.02 44.7998 1006.62 44.7998H1012.42V65.7998H1003.82C998.082 65.7998 993.215 66.4665 989.215 67.7998C985.215 69.1331 982.149 70.9997 980.016 73.3994C978.016 75.7993 977.016 78.7996 977.016 82.3994V148.8H955.215V44.7998H977.016V65.3994ZM1143.38 42.3994C1153.78 42.3994 1161.78 45.9334 1167.38 53C1173.11 60.0667 1175.98 69.9999 1175.98 82.7998V148.8H1154.18V85.3994C1154.18 77.2666 1152.64 71.2001 1149.58 67.2002C1146.51 63.0669 1141.71 61 1135.18 61C1131.58 61 1128.11 61.6667 1124.78 63C1121.44 64.2 1118.78 66.1332 1116.78 68.7998C1114.78 71.4664 1113.78 74.7999 1113.78 78.7998V148.8H1091.98V85.3994C1091.98 77.2665 1090.44 71.2001 1087.38 67.2002C1084.31 63.0669 1079.58 61 1073.18 61C1069.58 61 1066.11 61.6667 1062.78 63C1059.44 64.2 1056.71 66.1333 1054.58 68.7998C1052.58 71.4665 1051.58 74.7998 1051.58 78.7998V148.8H1029.78V44.7998H1051.58V62H1052.58C1054.71 56.5334 1057.91 51.9335 1062.18 48.2002C1066.58 44.3335 1072.71 42.3994 1080.58 42.3994C1087.51 42.3995 1093.71 44.133 1099.18 47.5996C1104.64 50.9329 1108.64 56.2663 1111.18 63.5996H1111.78C1113.64 57.8663 1117.24 52.9331 1122.58 48.7998C1127.91 44.5333 1134.84 42.3994 1143.38 42.3994ZM1225.95 148.8H1204.14V44.7998H1225.95V148.8ZM1282.67 44.7998H1304.47V62.5996H1282.67V131H1302.88V148.8H1283.88C1276.41 148.8 1270.67 146.8 1266.67 142.8C1262.81 138.667 1260.88 133.067 1260.88 126V62.5996H1244.67V44.7998H1253.47C1257.07 44.7998 1259.54 43.9994 1260.88 42.3994C1262.34 40.7994 1263.07 38.1993 1263.07 34.5996V16.3994H1282.67V44.7998ZM47.7998 60.5996C40.4666 60.5996 34.4664 62.9331 29.7998 67.5996C25.2665 72.1329 23 78.9333 23 88V105.6C23 114.666 25.2665 121.534 29.7998 126.2C34.4664 130.733 40.4666 133 47.7998 133C55.2663 133 61.1997 130.733 65.5996 126.2C70.1329 121.534 72.3994 114.666 72.3994 105.6V88C72.3994 78.9333 70.1329 72.1329 65.5996 67.5996C61.1997 62.933 55.2663 60.5997 47.7998 60.5996ZM596.003 60.5996C588.67 60.5996 582.67 62.9331 578.003 67.5996C573.47 72.1329 571.203 78.9333 571.203 88V105.6C571.203 114.666 573.47 121.534 578.003 126.2C582.67 130.733 588.67 133 596.003 133C603.469 133 609.403 130.733 613.803 126.2C618.336 121.534 620.603 114.666 620.603 105.6V88C620.603 78.9333 618.336 72.1329 613.803 67.5996C609.403 62.933 603.469 60.5997 596.003 60.5996ZM885.511 60.5996C878.178 60.5996 872.177 62.9331 867.511 67.5996C862.977 72.1329 860.711 78.9333 860.711 88V105.6C860.711 114.666 862.977 121.534 867.511 126.2C872.177 130.733 878.178 133 885.511 133C892.977 133 898.911 130.733 903.311 126.2C907.844 121.534 910.11 114.666 910.11 105.6V88C910.11 78.9333 907.844 72.1329 903.311 67.5996C898.911 62.933 892.977 60.5997 885.511 60.5996ZM162.904 61C158.504 61 154.504 61.7335 150.904 63.2002C147.438 64.6669 144.637 66.7328 142.504 69.3994C140.371 72.0661 139.305 75.1998 139.305 78.7998V114C139.305 118 140.371 121.4 142.504 124.2C144.637 126.867 147.438 129 150.904 130.6C154.504 132.066 158.504 132.8 162.904 132.8C170.504 132.8 176.571 130.333 181.104 125.399C185.638 120.333 187.904 113.8 187.904 105.8V87.7998C187.904 79.7998 185.638 73.3327 181.104 68.3994C176.571 63.4661 170.504 61 162.904 61ZM274.664 59.3994C269.597 59.3994 265.13 60.6 261.264 63C257.53 65.2666 254.597 68.4664 252.464 72.5996C250.464 76.5996 249.464 81.2663 249.464 86.5996V88H297.863V86C297.863 80.6667 296.93 76 295.063 72C293.197 68 290.53 64.9331 287.063 62.7998C283.597 60.5332 279.464 59.3995 274.664 59.3994ZM1215.14 0C1219.68 0 1222.95 1.06687 1224.95 3.2002C1226.94 5.3334 1227.95 8.06646 1227.95 11.3994V14.7998C1227.95 18.1331 1226.95 20.8667 1224.95 23C1222.95 25.1333 1219.68 26.2002 1215.14 26.2002C1210.61 26.2001 1207.28 25.1333 1205.14 23C1203.14 20.8667 1202.14 18.1331 1202.14 14.7998V11.3994C1202.14 8.06645 1203.14 5.3334 1205.14 3.2002C1207.28 1.06692 1210.61 5.26587e-05 1215.14 0Z" fill="currentColor"/>
</svg>
