<svg color="#00618E" width="1438" height="189" viewBox="0 0 1438 189" fill="none" xmlns="http://www.w3.org/2000/svg">
<path d="M172.076 42.5996C180.876 42.5996 188.343 44.8002 194.477 49.2002C200.61 53.4668 205.277 59.6666 208.477 67.7998C211.81 75.7998 213.477 85.5333 213.477 97C213.477 108.333 211.81 118.067 208.477 126.2C205.277 134.333 200.61 140.6 194.477 145C188.343 149.267 180.876 151.4 172.076 151.4C165.143 151.4 159.143 149.667 154.076 146.2C149.01 142.734 145.277 137.933 142.877 131.8H141.877V189H120.076V45H141.877V62.2002H142.877C145.01 55.9335 148.677 51.1331 153.877 47.7998C159.077 44.3334 165.143 42.5997 172.076 42.5996ZM1382.09 106.2L1388.09 128.8H1389.09L1395.69 106.2L1416.49 45H1437.49L1393.69 169.6C1392.09 174.266 1390.16 178 1387.89 180.8C1385.76 183.733 1382.96 185.8 1379.49 187C1376.16 188.333 1371.76 189 1366.29 189H1353.69V171.2H1371.29L1377.29 153.6L1339.49 45H1361.29L1382.09 106.2ZM48.3721 42.5996C57.972 42.5996 66.3055 44.8671 73.3721 49.4004C80.5719 53.8004 86.1051 60.067 89.9717 68.2002C93.9717 76.3335 95.9717 85.9334 95.9717 97C95.9717 108.067 93.9717 117.666 89.9717 125.8C86.1051 133.933 80.572 140.266 73.3721 144.8C66.3055 149.2 57.972 151.4 48.3721 151.4C38.6387 151.4 30.1717 149.2 22.9717 144.8C15.9051 140.266 10.372 133.933 6.37207 125.8C2.50544 117.666 0.572266 108.067 0.572266 97C0.572267 85.9334 2.50543 76.3335 6.37207 68.2002C10.372 60.067 15.9052 53.8004 22.9717 49.4004C30.1717 44.8671 38.6387 42.5996 48.3721 42.5996ZM278.836 42.5996C289.102 42.5996 297.636 44.9332 304.436 49.5996C311.369 54.1329 316.569 60.3335 320.036 68.2002C323.503 76.0668 325.236 84.8005 325.236 94.4004V102.6H254.036V106C254.036 114 256.369 120.6 261.036 125.8C265.836 130.866 272.636 133.4 281.436 133.4C287.835 133.4 293.236 132 297.636 129.2C302.036 126.4 305.702 122.6 308.636 117.8L321.636 130.4C317.636 136.667 311.969 141.733 304.636 145.6C297.436 149.466 289.036 151.4 279.436 151.4C269.569 151.4 261.036 149.2 253.836 144.8C246.636 140.266 241.036 133.933 237.036 125.8C233.169 117.666 231.236 108.067 231.236 97C231.236 85.9334 233.17 76.4003 237.036 68.4004C240.903 60.2672 246.369 53.9337 253.436 49.4004C260.502 44.8671 268.969 42.5996 278.836 42.5996ZM505.589 42.5996C515.989 42.5996 524.523 44.9329 531.189 49.5996C537.856 54.2663 542.656 60.4669 545.589 68.2002L527.589 76.5996C526.122 71.7999 523.522 68.0001 519.789 65.2002C516.056 62.2669 511.322 60.7998 505.589 60.7998C497.589 60.7998 491.522 63.3338 487.389 68.4004C483.256 73.3336 481.189 79.8001 481.189 87.7998V106.2C481.189 114.2 483.256 120.733 487.389 125.8C491.522 130.866 497.589 133.4 505.589 133.4C511.856 133.4 516.922 131.866 520.789 128.8C524.656 125.6 527.723 121.4 529.989 116.2L546.389 125C543.055 133.533 537.922 140.066 530.989 144.6C524.056 149.133 515.589 151.4 505.589 151.4C490.522 151.4 478.855 146.533 470.589 136.8C462.322 126.933 458.189 113.667 458.189 97C458.189 80.3335 462.322 67.1337 470.589 57.4004C478.855 47.5338 490.522 42.5997 505.589 42.5996ZM606.575 42.5996C616.175 42.5996 624.509 44.8671 631.575 49.4004C638.775 53.8004 644.308 60.067 648.175 68.2002C652.175 76.3335 654.175 85.9334 654.175 97C654.175 108.067 652.175 117.666 648.175 125.8C644.308 133.933 638.775 140.266 631.575 144.8C624.509 149.2 616.175 151.4 606.575 151.4C596.842 151.4 588.375 149.2 581.175 144.8C574.108 140.266 568.575 133.933 564.575 125.8C560.709 117.666 558.775 108.067 558.775 97C558.775 85.9334 560.709 76.3335 564.575 68.2002C568.575 60.067 574.108 53.8004 581.175 49.4004C588.375 44.8671 596.842 42.5996 606.575 42.5996ZM902.083 42.5996C911.683 42.5996 920.016 44.8671 927.083 49.4004C934.283 53.8004 939.816 60.067 943.683 68.2002C947.683 76.3335 949.683 85.9334 949.683 97C949.683 108.067 947.683 117.666 943.683 125.8C939.816 133.933 934.283 140.266 927.083 144.8C920.016 149.2 911.683 151.4 902.083 151.4C892.35 151.4 883.883 149.2 876.683 144.8C869.616 140.266 864.083 133.933 860.083 125.8C856.216 117.666 854.283 108.067 854.283 97C854.283 85.9334 856.216 76.3335 860.083 68.2002C864.083 60.067 869.616 53.8004 876.683 49.4004C883.883 44.8671 892.35 42.5996 902.083 42.5996ZM401.373 42.5996C412.04 42.5996 420.307 46.1335 426.174 53.2002C432.174 60.2668 435.174 70.2002 435.174 83V149H413.373V85.5996C413.373 77.4666 411.773 71.4003 408.573 67.4004C405.507 63.2671 400.573 61.2002 393.773 61.2002C389.907 61.2002 386.24 61.8669 382.773 63.2002C379.44 64.4002 376.64 66.3333 374.373 69C372.24 71.6666 371.174 75.0001 371.174 79V149H349.373V45H371.174V62.2002H372.174C374.44 56.6003 377.84 51.9335 382.373 48.2002C387.04 44.4669 393.373 42.5997 401.373 42.5996ZM730.279 42.5996C740.946 42.5996 749.213 46.1335 755.08 53.2002C761.08 60.2668 764.08 70.2002 764.08 83V149H742.279V85.5996C742.279 77.4666 740.679 71.4003 737.479 67.4004C734.413 63.2671 729.48 61.2002 722.68 61.2002C718.813 61.2002 715.146 61.8669 711.68 63.2002C708.346 64.4002 705.546 66.3333 703.279 69C701.146 71.6666 700.08 75.0001 700.08 79V149H678.279V45H700.08V62.2002H701.08C703.347 56.6003 706.746 51.9335 711.279 48.2002C715.946 44.4669 722.279 42.5997 730.279 42.5996ZM843.295 18.7998H821.495V45H843.295V62.7998H821.495V149H799.695V62.7998H783.896V45H799.695V27.7998C799.695 19.4001 801.895 12.8668 806.295 8.2002C810.828 3.4002 817.429 1 826.096 1H843.295V18.7998ZM995.588 65.5996H996.588C997.655 62.1331 999.321 58.8663 1001.59 55.7998C1003.99 52.6 1007.12 49.9999 1010.99 48C1014.85 46 1019.59 45 1025.19 45H1030.99V66H1022.39C1016.65 66 1011.79 66.6667 1007.79 68C1003.79 69.3333 1000.72 71.1999 998.588 73.5996C996.588 75.9995 995.588 78.9998 995.588 82.5996V149H973.787V45H995.588V65.5996ZM1163.95 42.5996C1174.35 42.5996 1182.35 46.1336 1187.95 53.2002C1193.68 60.2668 1196.55 70.2001 1196.55 83V149H1174.75V85.5996C1174.75 77.4668 1173.22 71.4003 1170.15 67.4004C1167.08 63.2671 1162.28 61.2002 1155.75 61.2002C1152.15 61.2002 1148.68 61.8669 1145.35 63.2002C1142.02 64.4002 1139.35 66.3334 1137.35 69C1135.35 71.6666 1134.35 75.0001 1134.35 79V149H1112.55V85.5996C1112.55 77.4667 1111.02 71.4003 1107.95 67.4004C1104.88 63.2671 1100.15 61.2002 1093.75 61.2002C1090.15 61.2002 1086.68 61.8669 1083.35 63.2002C1080.02 64.4002 1077.28 66.3335 1075.15 69C1073.15 71.6667 1072.15 75 1072.15 79V149H1050.35V45H1072.15V62.2002H1073.15C1075.28 56.7336 1078.48 52.1337 1082.75 48.4004C1087.15 44.5337 1093.28 42.5996 1101.15 42.5996C1108.08 42.5997 1114.28 44.3332 1119.75 47.7998C1125.22 51.1331 1129.22 56.4666 1131.75 63.7998H1132.35C1134.22 58.0665 1137.82 53.1333 1143.15 49C1148.48 44.7335 1155.42 42.5996 1163.95 42.5996ZM1248.52 149H1226.72V45H1248.52V149ZM1307.25 45H1329.05V62.7998H1307.25V131.2H1327.45V149H1308.45C1300.98 149 1295.25 147 1291.25 143C1287.38 138.867 1285.45 133.267 1285.45 126.2V62.7998H1269.25V45H1278.05C1281.65 45 1284.11 44.1996 1285.45 42.5996C1286.91 40.9996 1287.65 38.3995 1287.65 34.7998V16.5996H1307.25V45ZM48.3721 60.7998C41.0388 60.7998 35.0387 63.1333 30.3721 67.7998C25.8387 72.3331 23.5723 79.1335 23.5723 88.2002V105.8C23.5723 114.866 25.8387 121.734 30.3721 126.4C35.0387 130.934 41.0389 133.2 48.3721 133.2C55.8385 133.2 61.7719 130.934 66.1719 126.4C70.7052 121.734 72.9717 114.866 72.9717 105.8V88.2002C72.9717 79.1335 70.7052 72.3331 66.1719 67.7998C61.7719 63.1333 55.8386 60.7998 48.3721 60.7998ZM606.575 60.7998C599.242 60.7998 593.242 63.1333 588.575 67.7998C584.042 72.3331 581.775 79.1335 581.775 88.2002V105.8C581.775 114.866 584.042 121.734 588.575 126.4C593.242 130.934 599.242 133.2 606.575 133.2C614.042 133.2 619.975 130.934 624.375 126.4C628.908 121.734 631.175 114.866 631.175 105.8V88.2002C631.175 79.1335 628.908 72.3331 624.375 67.7998C619.975 63.1332 614.042 60.7998 606.575 60.7998ZM902.083 60.7998C894.75 60.7998 888.75 63.1333 884.083 67.7998C879.55 72.3331 877.283 79.1335 877.283 88.2002V105.8C877.283 114.866 879.55 121.734 884.083 126.4C888.75 130.934 894.75 133.2 902.083 133.2C909.549 133.2 915.483 130.934 919.883 126.4C924.416 121.734 926.683 114.866 926.683 105.8V88.2002C926.683 79.1335 924.416 72.3331 919.883 67.7998C915.483 63.1332 909.55 60.7998 902.083 60.7998ZM165.477 61.2002C161.077 61.2002 157.077 61.9337 153.477 63.4004C150.01 64.867 147.209 66.933 145.076 69.5996C142.943 72.2663 141.877 75.4 141.877 79V114.2C141.877 118.2 142.943 121.6 145.076 124.4C147.209 127.067 150.01 129.2 153.477 130.8C157.077 132.266 161.077 133 165.477 133C173.077 133 179.143 130.533 183.677 125.6C188.21 120.533 190.477 114 190.477 106V88C190.477 80 188.21 73.5329 183.677 68.5996C179.143 63.6664 173.077 61.2002 165.477 61.2002ZM279.236 59.5996C274.17 59.5996 269.703 60.8002 265.836 63.2002C262.103 65.4668 259.169 68.6666 257.036 72.7998C255.036 76.7998 254.036 81.4666 254.036 86.7998V88.2002H302.436V86.2002C302.436 80.8669 301.502 76.2002 299.636 72.2002C297.769 68.2002 295.102 65.1333 291.636 63C288.169 60.7335 284.036 59.5997 279.236 59.5996ZM1237.72 0.200195C1242.25 0.200195 1245.52 1.26706 1247.52 3.40039C1249.52 5.53359 1250.52 8.26667 1250.52 11.5996V15C1250.52 18.3333 1249.52 21.0669 1247.52 23.2002C1245.52 25.3335 1242.25 26.4004 1237.72 26.4004C1233.18 26.4003 1229.85 25.3335 1227.72 23.2002C1225.72 21.0669 1224.72 18.3333 1224.72 15V11.5996C1224.72 8.26666 1225.72 5.53359 1227.72 3.40039C1229.85 1.26711 1233.18 0.200249 1237.72 0.200195Z" fill="currentColor"/>
</svg>
