<svg width="64" height="64" viewBox="0 0 64 64" fill="none" xmlns="http://www.w3.org/2000/svg">
<rect width="64" height="64" rx="8" fill="url(#paint0_linear_17_424)"/>
<path d="M45.3691 45.112C41.7531 45.112 38.9531 43.944 36.9691 41.608C34.9851 39.24 33.9931 36.056 33.9931 32.056C33.9931 28.056 34.9851 24.888 36.9691 22.552C38.9531 20.184 41.7531 19 45.3691 19C47.8651 19 49.9131 19.56 51.5131 20.68C53.1131 21.8 54.2651 23.288 54.9691 25.144L50.6491 27.16C50.2971 26.008 49.6731 25.096 48.7771 24.424C47.8811 23.72 46.7451 23.368 45.3691 23.368C43.4491 23.368 41.9931 23.976 41.0011 25.192C40.0091 26.376 39.5131 27.928 39.5131 29.848V34.264C39.5131 36.184 40.0091 37.752 41.0011 38.968C41.9931 40.184 43.4491 40.792 45.3691 40.792C46.8731 40.792 48.0891 40.424 49.0171 39.688C49.9451 38.92 50.6811 37.912 51.2251 36.664L55.1611 38.776C54.3611 40.824 53.1291 42.392 51.4651 43.48C49.8011 44.568 47.7691 45.112 45.3691 45.112Z" fill="#FAFAFA"/>
<path d="M19.472 45.112C17.136 45.112 15.104 44.584 13.376 43.528C11.68 42.44 10.352 40.92 9.392 38.968C8.464 37.016 8 34.712 8 32.056C8 29.4 8.464 27.096 9.392 25.144C10.352 23.192 11.68 21.688 13.376 20.632C15.104 19.544 17.136 19 19.472 19C21.776 19 23.776 19.544 25.472 20.632C27.2 21.688 28.528 23.192 29.456 25.144C30.416 27.096 30.896 29.4 30.896 32.056C30.896 34.712 30.416 37.016 29.456 38.968C28.528 40.92 27.2 42.44 25.472 43.528C23.776 44.584 21.776 45.112 19.472 45.112ZM19.472 40.744C21.264 40.744 22.688 40.2 23.744 39.112C24.832 37.992 25.376 36.344 25.376 34.168V29.944C25.376 27.768 24.832 26.136 23.744 25.048C22.688 23.928 21.264 23.368 19.472 23.368C17.712 23.368 16.272 23.928 15.152 25.048C14.064 26.136 13.52 27.768 13.52 29.944V34.168C13.52 36.344 14.064 37.992 15.152 39.112C16.272 40.2 17.712 40.744 19.472 40.744Z" fill="#FAFAFA"/>
<defs>
<linearGradient id="paint0_linear_17_424" x1="32" y1="0" x2="32" y2="64" gradientUnits="userSpaceOnUse">
<stop stop-color="#475569"/>
<stop offset="1" stop-color="#3A3A3A"/>
</linearGradient>
</defs>
</svg>
