<svg width="32" height="32" viewBox="0 0 32 32" fill="none" xmlns="http://www.w3.org/2000/svg">
<rect width="32" height="32" rx="2" fill="#00749D"/>
<path d="M16.004 25.784C14.252 25.784 12.728 25.388 11.432 24.596C10.16 23.78 9.16399 22.64 8.44399 21.176C7.74799 19.712 7.39999 17.984 7.39999 15.992C7.39999 14 7.74799 12.272 8.44399 10.808C9.16399 9.34395 10.16 8.21595 11.432 7.42395C12.728 6.60795 14.252 6.19995 16.004 6.19995C17.732 6.19995 19.232 6.60795 20.504 7.42395C21.8 8.21595 22.796 9.34395 23.492 10.808C24.212 12.272 24.572 14 24.572 15.992C24.572 17.984 24.212 19.712 23.492 21.176C22.796 22.64 21.8 23.78 20.504 24.596C19.232 25.388 17.732 25.784 16.004 25.784ZM16.004 22.508C17.348 22.508 18.416 22.1 19.208 21.284C20.024 20.444 20.432 19.208 20.432 17.576V14.408C20.432 12.776 20.024 11.552 19.208 10.736C18.416 9.89595 17.348 9.47595 16.004 9.47595C14.684 9.47595 13.604 9.89595 12.764 10.736C11.948 11.552 11.54 12.776 11.54 14.408V17.576C11.54 19.208 11.948 20.444 12.764 21.284C13.604 22.1 14.684 22.508 16.004 22.508Z" fill="white"/>
</svg>
