<svg width="386" height="53" viewBox="0 0 386 53" fill="none" xmlns="http://www.w3.org/2000/svg">
<path d="M374.044 29.68L379.868 12.544H385.748L373.484 47.432C373.036 48.7387 372.495 49.784 371.86 50.568C371.263 51.3893 370.479 51.968 369.508 52.304C368.575 52.6773 367.343 52.864 365.812 52.864H362.284V47.88H367.212L368.892 42.952L358.308 12.544H364.412L370.236 29.68L371.916 36.008H372.196L374.044 29.68Z" fill="#3A3A3A"/>
<path d="M356.055 41.664H350.735C348.644 41.664 347.039 41.104 345.919 39.984C344.836 38.8267 344.295 37.2587 344.295 35.28V17.528H339.759V12.544H342.223C343.231 12.544 343.922 12.32 344.295 11.872C344.706 11.424 344.911 10.696 344.911 9.688V4.592H350.399V12.544H356.503V17.528H350.399V36.68H356.055V41.664Z" fill="#3A3A3A"/>
<path d="M332.051 7.336C330.781 7.336 329.848 7.03733 329.251 6.44C328.691 5.84267 328.411 5.07733 328.411 4.144V3.192C328.411 2.25867 328.691 1.49333 329.251 0.896C329.848 0.298668 330.781 0 332.051 0C333.32 0 334.235 0.298668 334.795 0.896C335.355 1.49333 335.635 2.25867 335.635 3.192V4.144C335.635 5.07733 335.355 5.84267 334.795 6.44C334.235 7.03733 333.32 7.336 332.051 7.336ZM328.971 41.664V12.544H335.075V41.664H328.971Z" fill="#3A3A3A"/>
<path d="M286.812 41.664H280.708V12.544H286.812V17.36H287.092C287.689 15.8293 288.585 14.5413 289.78 13.496C291.012 12.4133 292.729 11.872 294.932 11.872C296.873 11.872 298.609 12.3573 300.14 13.328C301.671 14.2613 302.791 15.7547 303.5 17.808H303.668C304.191 16.2027 305.199 14.8213 306.692 13.664C308.185 12.4693 310.127 11.872 312.516 11.872C315.428 11.872 317.668 12.8613 319.236 14.84C320.841 16.8187 321.644 19.6 321.644 23.184V41.664H315.54V23.912C315.54 21.6347 315.111 19.936 314.252 18.816C313.393 17.6587 312.049 17.08 310.22 17.08C309.212 17.08 308.241 17.2667 307.308 17.64C306.375 17.976 305.628 18.5173 305.068 19.264C304.508 20.0107 304.228 20.944 304.228 22.064V41.664H298.124V23.912C298.124 21.6347 297.695 19.936 296.836 18.816C295.977 17.6587 294.652 17.08 292.86 17.08C291.852 17.08 290.881 17.2667 289.948 17.64C289.015 17.976 288.249 18.5173 287.652 19.264C287.092 20.0107 286.812 20.944 286.812 22.064V41.664Z" fill="#3A3A3A"/>
<path d="M266.494 41.664H260.39V12.544H266.494V18.312H266.774C267.073 17.3413 267.54 16.4267 268.174 15.568C268.846 14.672 269.724 13.944 270.806 13.384C271.889 12.824 273.214 12.544 274.782 12.544H276.406V18.424H273.998C272.393 18.424 271.03 18.6107 269.91 18.984C268.79 19.3573 267.932 19.88 267.334 20.552C266.774 21.224 266.494 22.064 266.494 23.072V41.664Z" fill="#3A3A3A"/>
<path d="M241.433 42.336C238.708 42.336 236.337 41.72 234.321 40.488C232.342 39.2187 230.793 37.4453 229.673 35.168C228.59 32.8907 228.049 30.2027 228.049 27.104C228.049 24.0053 228.59 21.3173 229.673 19.04C230.793 16.7627 232.342 15.008 234.321 13.776C236.337 12.5067 238.708 11.872 241.433 11.872C244.121 11.872 246.454 12.5067 248.433 13.776C250.449 15.008 251.998 16.7627 253.081 19.04C254.201 21.3173 254.761 24.0053 254.761 27.104C254.761 30.2027 254.201 32.8907 253.081 35.168C251.998 37.4453 250.449 39.2187 248.433 40.488C246.454 41.72 244.121 42.336 241.433 42.336ZM241.433 37.24C243.524 37.24 245.185 36.6053 246.417 35.336C247.686 34.0293 248.321 32.1067 248.321 29.568V24.64C248.321 22.1013 247.686 20.1973 246.417 18.928C245.185 17.6213 243.524 16.968 241.433 16.968C239.38 16.968 237.7 17.6213 236.393 18.928C235.124 20.1973 234.489 22.1013 234.489 24.64V29.568C234.489 32.1067 235.124 34.0293 236.393 35.336C237.7 36.6053 239.38 37.24 241.433 37.24Z" fill="#3A3A3A"/>
<path d="M213.885 41.664V17.528H209.461V12.544H213.885V7.728C213.885 5.376 214.501 3.54666 215.733 2.24C217.002 0.895998 218.85 0.223999 221.277 0.223999H226.093V5.208H219.989V12.544H226.093V17.528H219.989V41.664H213.885Z" fill="#3A3A3A"/>
<path d="M187.112 41.664H181.008V12.544H187.112V17.36H187.392C188.027 15.792 188.979 14.4853 190.248 13.44C191.555 12.3947 193.328 11.872 195.568 11.872C198.555 11.872 200.87 12.8613 202.512 14.84C204.192 16.8187 205.032 19.6 205.032 23.184V41.664H198.928V23.912C198.928 21.6347 198.48 19.936 197.584 18.816C196.726 17.6587 195.344 17.08 193.44 17.08C192.358 17.08 191.331 17.2667 190.36 17.64C189.427 17.976 188.643 18.5173 188.008 19.264C187.411 20.0107 187.112 20.944 187.112 22.064V41.664Z" fill="#3A3A3A"/>
<path d="M162.051 42.336C159.326 42.336 156.955 41.72 154.939 40.488C152.96 39.2187 151.411 37.4453 150.291 35.168C149.208 32.8907 148.667 30.2027 148.667 27.104C148.667 24.0053 149.208 21.3173 150.291 19.04C151.411 16.7627 152.96 15.008 154.939 13.776C156.955 12.5067 159.326 11.872 162.051 11.872C164.739 11.872 167.072 12.5067 169.051 13.776C171.067 15.008 172.616 16.7627 173.699 19.04C174.819 21.3173 175.379 24.0053 175.379 27.104C175.379 30.2027 174.819 32.8907 173.699 35.168C172.616 37.4453 171.067 39.2187 169.051 40.488C167.072 41.72 164.739 42.336 162.051 42.336ZM162.051 37.24C164.142 37.24 165.803 36.6053 167.035 35.336C168.304 34.0293 168.939 32.1067 168.939 29.568V24.64C168.939 22.1013 168.304 20.1973 167.035 18.928C165.803 17.6213 164.142 16.968 162.051 16.968C159.998 16.968 158.318 17.6213 157.011 18.928C155.742 20.1973 155.107 22.1013 155.107 24.64V29.568C155.107 32.1067 155.742 34.0293 157.011 35.336C158.318 36.6053 159.998 37.24 162.051 37.24Z" fill="#3A3A3A"/>
<path d="M134.895 42.336C130.676 42.336 127.409 40.9733 125.095 38.248C122.78 35.4853 121.623 31.7707 121.623 27.104C121.623 22.4373 122.78 18.7413 125.095 16.016C127.409 13.2533 130.676 11.872 134.895 11.872C137.807 11.872 140.196 12.5253 142.063 13.832C143.929 15.1387 145.273 16.8747 146.095 19.04L141.055 21.392C140.644 20.048 139.916 18.984 138.871 18.2C137.825 17.3787 136.5 16.968 134.895 16.968C132.655 16.968 130.956 17.6773 129.799 19.096C128.641 20.4773 128.063 22.288 128.063 24.528V29.68C128.063 31.92 128.641 33.7493 129.799 35.168C130.956 36.5867 132.655 37.296 134.895 37.296C136.649 37.296 138.068 36.8667 139.151 36.008C140.233 35.112 141.092 33.936 141.727 32.48L146.319 34.944C145.385 37.3333 143.948 39.1627 142.007 40.432C140.065 41.7013 137.695 42.336 134.895 42.336Z" fill="#3A3A3A"/>
<path d="M97.8027 41.664H93.3227V12.768H97.8027V17.472H98.0267C98.736 15.8293 99.7254 14.5227 100.995 13.552C102.301 12.5813 104.037 12.096 106.203 12.096C109.189 12.096 111.541 13.0667 113.259 15.008C115.013 16.912 115.891 19.6187 115.891 23.128V41.664H111.411V23.912C111.411 21.336 110.851 19.3947 109.731 18.088C108.648 16.7813 107.024 16.128 104.859 16.128C103.664 16.128 102.525 16.3333 101.443 16.744C100.36 17.1173 99.4827 17.7147 98.8107 18.536C98.1387 19.3573 97.8027 20.384 97.8027 21.616V41.664Z" fill="#475569"/>
<path d="M74.5723 42.336C71.959 42.336 69.6817 41.72 67.7403 40.488C65.799 39.2187 64.287 37.464 63.2043 35.224C62.1217 32.9467 61.5803 30.2773 61.5803 27.216C61.5803 24.1547 62.1217 21.504 63.2043 19.264C64.287 16.9867 65.799 15.232 67.7403 14C69.6817 12.7307 71.959 12.096 74.5723 12.096C77.1483 12.096 79.3697 12.712 81.2363 13.944C83.103 15.1387 84.5403 16.8 85.5483 18.928C86.5563 21.056 87.0603 23.4827 87.0603 26.208V28.336H66.2843V29.68C66.2843 32.1813 67.031 34.272 68.5243 35.952C70.055 37.5947 72.1643 38.416 74.8523 38.416C76.6817 38.416 78.2683 37.9867 79.6123 37.128C80.9937 36.2693 82.0577 35.0373 82.8043 33.432L85.9963 35.728C85.063 37.6693 83.607 39.256 81.6283 40.488C79.6497 41.72 77.2977 42.336 74.5723 42.336ZM74.5723 15.848C72.967 15.848 71.5297 16.2213 70.2603 16.968C69.0283 17.7147 68.0577 18.76 67.3483 20.104C66.639 21.4107 66.2843 22.904 66.2843 24.584V24.976H82.2443V24.36C82.2443 22.6427 81.927 21.1493 81.2923 19.88C80.6577 18.6107 79.7617 17.6213 78.6043 16.912C77.447 16.2027 76.103 15.848 74.5723 15.848Z" fill="#475569"/>
<path d="M32.3439 52.864V12.768H36.8239V17.472H37.0479C37.7946 15.6427 38.8959 14.2987 40.3519 13.44C41.8079 12.544 43.5253 12.096 45.5039 12.096C47.9306 12.096 50.0213 12.712 51.7759 13.944C53.5306 15.176 54.8746 16.9307 55.8079 19.208C56.7786 21.448 57.2639 24.1173 57.2639 27.216C57.2639 30.2773 56.7786 32.9467 55.8079 35.224C54.8746 37.5013 53.5306 39.256 51.7759 40.488C50.0213 41.72 47.9306 42.336 45.5039 42.336C43.5253 42.336 41.8266 41.888 40.4079 40.992C39.0266 40.096 37.9066 38.752 37.0479 36.96H36.8239V52.864H32.3439ZM44.2719 38.304C46.8106 38.304 48.8079 37.52 50.2639 35.952C51.7199 34.3467 52.4479 32.256 52.4479 29.68V24.752C52.4479 22.176 51.7199 20.104 50.2639 18.536C48.8079 16.9307 46.8106 16.128 44.2719 16.128C42.9279 16.128 41.6773 16.3707 40.5199 16.856C39.3999 17.3413 38.5039 17.9947 37.8319 18.816C37.1599 19.6373 36.8239 20.5893 36.8239 21.672V32.424C36.8239 33.656 37.1599 34.72 37.8319 35.616C38.5039 36.4747 39.3999 37.1467 40.5199 37.632C41.6773 38.08 42.9279 38.304 44.2719 38.304Z" fill="#475569"/>
<path d="M13.048 42.336C10.472 42.336 8.19467 41.72 6.216 40.488C4.27467 39.2187 2.744 37.464 1.624 35.224C0.541334 32.9467 0 30.2773 0 27.216C0 24.1547 0.541334 21.504 1.624 19.264C2.744 16.9867 4.27467 15.232 6.216 14C8.19467 12.7307 10.472 12.096 13.048 12.096C15.624 12.096 17.8827 12.7307 19.824 14C21.8027 15.232 23.3333 16.9867 24.416 19.264C25.536 21.504 26.096 24.1547 26.096 27.216C26.096 30.2773 25.536 32.9467 24.416 35.224C23.3333 37.464 21.8027 39.2187 19.824 40.488C17.8827 41.72 15.624 42.336 13.048 42.336ZM13.048 38.36C15.4747 38.36 17.4533 37.6133 18.984 36.12C20.5147 34.6267 21.28 32.3493 21.28 29.288V25.144C21.28 22.0827 20.5147 19.8053 18.984 18.312C17.4533 16.8187 15.4747 16.072 13.048 16.072C10.6587 16.072 8.68 16.8187 7.112 18.312C5.58133 19.8053 4.816 22.0827 4.816 25.144V29.288C4.816 32.3493 5.58133 34.6267 7.112 36.12C8.68 37.6133 10.6587 38.36 13.048 38.36Z" fill="#475569"/>
</svg>
