<svg width="512" height="512" viewBox="0 0 512 512" fill="none" xmlns="http://www.w3.org/2000/svg">
<path d="M442.672 160.177L270.618 260.079C267.536 261.868 265.64 265.163 265.64 268.727V468.63C265.64 476.339 273.994 481.149 280.661 477.278L452.715 377.376C455.797 375.586 457.694 372.292 457.694 368.728V168.824C457.694 161.116 449.339 156.306 442.672 160.177Z" fill="#8A3FFC"/>
<path d="M70.0213 160.177L242.075 260.079C245.157 261.868 247.054 265.163 247.054 268.727V468.63C247.054 476.339 238.699 481.149 232.033 477.278L59.9786 377.376C56.8967 375.586 55 372.292 55 368.728V168.824C55 161.116 63.3547 156.306 70.0213 160.177Z" fill="#007D79"/>
<path d="M251.325 28.9156L79.1865 128.867C72.5483 132.722 72.5483 142.309 79.1865 146.163L251.325 246.115C254.43 247.918 258.263 247.918 261.368 246.115L433.507 146.163C440.145 142.309 440.145 132.722 433.507 128.867L261.368 28.9156C258.263 27.1128 254.43 27.1128 251.325 28.9156Z" fill="#4589FF"/>
</svg>
